# xmcd
#
# Track frame offsets: 
#        150
#        31428
#        53818
#        79393
#        92978
#        117711
#        155093
#
# Disc length: 2366 seconds
#
# Revision: 0
# Processed by: cddbd v1.5.2PL0 Copyright (c) Steve Scherf et al.
# Submitted via: ExactAudioCopy v0.99pb4
#
DISCID=60093c07
DTITLE=Campbell, Archie - Grand Ole Opry's Good Humor Man
DYEAR=2002
DGENRE=Country
TTITLE0=3 Little Pigs (Pee Little Thrigs)
TTITLE1=Archies Little Black Book
TTITLE2=Trainride to Bull's Gap
TTITLE3=The Swimmin' Hole
TTITLE4=Punctuation
TTITLE5=Who Does All The Work
TTITLE6=Women
EXTD=
EXTT0=
EXTT1=
EXTT2=
EXTT3=
EXTT4=
EXTT5=
EXTT6=
PLAYORDER=
